<svg width="316" height="312" viewBox="0 0 316 312" fill="none" xmlns="http://www.w3.org/2000/svg">
<path d="M92.4785 140.864L97.9742 240.422L139.541 172.309L92.4785 140.864Z" fill="#F38400"/>
<path d="M106.799 150.429L97.9752 240.422L117.648 157.682L106.799 150.429Z" fill="#FCA43C"/>
<path d="M106.797 150.429L125.306 146.785L121.985 160.577L106.797 150.429Z" fill="#FCA43C"/>
<path d="M117.647 157.681L125.308 146.784L121.986 160.576L117.647 157.681Z" fill="#D1760B"/>
<path d="M125 146.008C128.044 116.406 148.961 64.5596 208.272 93.9912C209.755 94.727 236.76 115.681 228.47 148.492C228.958 149.003 205.445 190.951 189.481 147.556C187.198 138.498 180.942 107.406 195.239 95.212C196.183 94.4065 198.556 87.384 230.871 74.6557M230.871 74.6557C230.383 74.1439 207.282 78.0907 230.871 74.6557Z" stroke="#F38400" stroke-width="1.5" stroke-dasharray="3 3"/>
</svg>
