<svg width="15" height="15" viewBox="0 0 15 15" fill="none" xmlns="http://www.w3.org/2000/svg">
<path d="M14.0004 1.25V11C14.0004 11.1989 13.9214 11.3897 13.7807 11.5303C13.6401 11.671 13.4493 11.75 13.2504 11.75C13.0515 11.75 12.8607 11.671 12.7201 11.5303C12.5794 11.3897 12.5004 11.1989 12.5004 11V3.06031L1.78104 13.7806C1.64031 13.9214 1.44944 14.0004 1.25042 14.0004C1.05139 14.0004 0.860523 13.9214 0.719792 13.7806C0.579062 13.6399 0.5 13.449 0.5 13.25C0.5 13.051 0.579062 12.8601 0.719792 12.7194L11.4401 2H3.50042C3.3015 2 3.11074 1.92098 2.97009 1.78033C2.82943 1.63968 2.75042 1.44891 2.75042 1.25C2.75042 1.05109 2.82943 0.860322 2.97009 0.71967C3.11074 0.579018 3.3015 0.5 3.50042 0.5H13.2504C13.4493 0.5 13.6401 0.579018 13.7807 0.71967C13.9214 0.860322 14.0004 1.05109 14.0004 1.25Z" fill="#F38400" stroke="#F38400"/>
</svg>
