<svg width="233" height="198" viewBox="0 0 233 198" fill="none" xmlns="http://www.w3.org/2000/svg">
<path d="M177.115 118.791C178.031 119.442 177.904 121.052 177.614 121.959C177.398 122.633 176.552 124.359 175.539 123.918C168.71 120.944 161.448 118.981 153.947 119.292C146.526 119.599 139.231 121.688 132.849 125.499C129.719 127.367 126.98 129.531 124.506 132.189C123.889 132.853 123.295 133.538 122.726 134.243C122.142 134.966 121.967 135.21 121.343 136.129C120.843 136.864 120.368 137.616 119.919 138.383C119.709 138.74 119.506 139.101 119.307 139.465C119.193 139.673 119.082 139.882 118.972 140.092C118.943 140.147 118.841 140.354 118.782 140.474C118.015 142.083 117.338 143.731 116.77 145.422C116.714 145.589 116.556 146.109 116.528 146.194C116.423 146.559 116.318 146.925 116.222 147.293C115.982 148.21 115.772 149.135 115.591 150.065C115.512 150.473 115.438 150.882 115.37 151.291C115.341 151.465 115.269 151.962 115.25 152.077C115.142 152.927 115.05 153.778 114.988 154.632C114.923 155.52 114.884 156.41 114.87 157.301C114.864 157.717 114.868 158.132 114.868 158.548C114.868 158.626 114.868 158.688 114.868 158.741C114.876 158.995 114.888 159.248 114.902 159.502C115.014 161.574 115.266 163.638 115.661 165.676C115.695 165.85 115.73 166.024 115.765 166.198C115.782 166.279 115.793 166.33 115.798 166.354C115.811 166.411 115.824 166.468 115.837 166.525C115.962 167.042 116.091 167.559 116.231 168.072C116.497 169.042 116.796 170.001 117.129 170.949C117.935 173.248 118.863 175.417 119.901 177.551C119.899 177.138 119.899 176.727 119.901 176.317C119.927 170.85 120.565 165.446 122.296 160.249C122.612 159.303 123.654 157.918 124.826 158.177C126.011 158.438 126.338 160.119 126.25 161.121C125.844 165.725 125.24 170.317 125.158 174.944C125.078 179.411 125.716 183.811 126.17 188.458C126.309 189.875 125.973 191.481 125.07 192.604C124.495 193.32 123.319 194.24 122.396 193.43C118.954 190.408 115.226 187.656 111.66 184.777C109.936 183.385 108.217 181.988 106.501 180.587C104.684 179.103 102.583 177.62 101.197 175.707C100.445 174.669 101.079 170.817 102.92 171.372C105.034 172.01 106.985 173.659 108.778 174.903C110.321 175.973 111.86 177.049 113.397 178.127C111.673 174.18 110.668 169.879 110.155 165.622C109.135 157.165 110.236 148.441 113.387 140.523C116.502 132.694 121.689 125.863 128.531 120.928C135.061 116.219 143.027 113.425 151.031 112.738C159.988 111.968 169.671 113.504 177.115 118.791Z" fill="#231F20"/>
<path d="M20.9393 58.0731C20.8018 59.3175 20.6886 60.5556 20.5999 61.7874C20.5112 63.0191 20.4385 64.252 20.3816 65.486C20.3345 66.7174 20.2936 67.9525 20.2587 69.1912C20.2239 70.43 20.1891 71.6687 20.1543 72.9074C20.5605 74.1991 20.969 75.4798 21.3799 76.7494C21.7883 78.0093 22.2284 79.2714 22.7005 80.5357L18.2755 81.8647C18.0093 80.3076 17.7127 78.774 17.3857 77.2639C17.0685 75.7512 16.7279 74.2289 16.364 72.6971C15.0398 70.7147 13.6865 68.7814 12.3043 66.8974C10.9195 65.0035 9.48714 63.1272 8.00718 61.2683C8.72522 61.0623 9.4847 60.8351 10.2856 60.5868C11.0841 60.3287 11.8163 60.0565 12.4823 59.7701C12.8901 60.6236 13.2881 61.4798 13.6763 62.3384C14.0743 63.1945 14.4736 64.0555 14.8741 64.9214C15.2819 65.775 15.6982 66.6211 16.1229 67.4599C16.5477 68.2987 16.9981 69.1153 17.4739 69.9096C17.4404 68.0424 17.3604 66.1767 17.2339 64.3127C17.1074 62.4486 16.9481 60.619 16.756 58.824C18.1498 58.652 19.5442 58.4017 20.9393 58.0731ZM32.3466 78.2975C31.3792 78.5471 30.4896 78.5525 29.6777 78.3138C28.8755 78.0726 28.1478 77.635 27.4945 77.0011C26.8509 76.3647 26.2881 75.5563 25.8059 74.576C25.3238 73.5957 24.9252 72.4948 24.6101 71.2734C24.2446 69.8566 24.0364 68.5242 23.9855 67.2764C23.9346 66.0285 24.0437 64.9165 24.313 63.9404C24.5921 62.9617 25.0326 62.1446 25.6347 61.4891C26.2441 60.8213 27.0226 60.3651 27.9705 60.1206C28.928 59.8736 29.8054 59.8609 30.6025 60.0826C31.3996 60.3042 32.1161 60.7186 32.7521 61.3258C33.3979 61.9304 33.9581 62.7082 34.4327 63.6592C34.9073 64.6102 35.3008 65.6915 35.6134 66.9031C35.7747 67.5285 35.9108 68.2177 36.0216 68.9707C36.1423 69.7212 36.2092 70.4855 36.2223 71.2637C36.2453 72.0394 36.2033 72.8058 36.0963 73.5629C35.9869 74.3102 35.7852 75.0032 35.4914 75.6417C35.1976 76.2803 34.793 76.8328 34.2776 77.2992C33.772 77.7631 33.1283 78.0959 32.3466 78.2975ZM31.8013 66.7297C31.6097 65.9871 31.4041 65.3314 31.1845 64.7628C30.9623 64.1844 30.7202 63.7102 30.458 63.3401C30.2055 62.9675 29.9343 62.704 29.6444 62.5495C29.3616 62.3827 29.0591 62.3409 28.7366 62.4241C28.3848 62.5149 28.1054 62.785 27.8983 63.2344C27.6911 63.6838 27.5611 64.2906 27.508 65.0546C27.4648 65.8161 27.5058 66.7226 27.6311 67.7741C27.7637 68.8133 27.9939 69.9681 28.3215 71.2383C28.5332 72.0591 28.7626 72.7868 29.0097 73.4213C29.2542 74.046 29.5139 74.5679 29.7887 74.9868C30.061 75.3959 30.341 75.6937 30.6287 75.88C30.9237 76.054 31.2276 76.1007 31.5403 76.02C31.8529 75.9394 32.0987 75.7405 32.2774 75.4234C32.4536 75.0966 32.573 74.6906 32.6354 74.2056C32.7077 73.718 32.7329 73.1695 32.7113 72.5602C32.6968 71.9387 32.6468 71.3002 32.5611 70.6449C32.4729 69.9799 32.3627 69.3101 32.2304 68.6356C32.0981 67.961 31.955 67.3257 31.8013 66.7297ZM46.8405 73.8241C46.7592 73.4282 46.683 73.0518 46.6118 72.695C46.5478 72.3259 46.4877 71.9715 46.4313 71.6317C46.2503 72.3037 46.0096 72.8452 45.7092 73.2561C45.4185 73.6646 45.1321 73.9886 44.85 74.2281C44.5143 74.5023 44.1658 74.7068 43.8046 74.8417C43.0815 75.0282 42.4046 75.01 41.774 74.7871C41.1433 74.5642 40.5664 74.1659 40.0432 73.5922C39.52 73.0185 39.0508 72.2902 38.6355 71.4073C38.2274 70.5121 37.8746 69.488 37.5772 68.3349C37.1613 66.7227 36.8069 65.1467 36.5139 63.6069C36.2307 62.0646 36.0186 60.5353 35.8775 59.0189L39.7063 58.4689C39.7717 59.6922 39.8594 60.7795 39.9693 61.7308C40.0864 62.6697 40.1989 63.4692 40.3066 64.1293C40.4323 64.8993 40.5621 65.5641 40.696 66.1235C40.9354 67.0518 41.1739 67.8553 41.4115 68.5339C41.6466 69.2028 41.8966 69.7479 42.1617 70.1694C42.434 70.5785 42.731 70.8615 43.0528 71.0181C43.3746 71.1748 43.7407 71.2002 44.1511 71.0944C44.4218 70.9724 44.6499 70.7052 44.8353 70.2926C44.9147 70.1158 44.989 69.8986 45.058 69.6411C45.1246 69.3738 45.1785 69.0577 45.2198 68.6927C45.2612 68.3277 45.2825 67.9054 45.2838 67.4256C45.2851 66.9459 45.2626 66.3941 45.2164 65.7704C45.0872 65.1888 44.9495 64.6147 44.8033 64.048C44.6546 63.4714 44.4946 62.851 44.3232 62.1865C44.1417 61.483 43.9438 60.7159 43.7296 59.8854C43.5153 59.0548 43.2648 58.1242 42.9781 57.0935L46.3204 56.2939C46.4631 57.0491 46.6017 57.748 46.7362 58.3907C46.8682 59.0237 46.9963 59.6211 47.1204 60.1831C47.2518 60.7328 47.3756 61.2532 47.4919 61.7443C47.6081 62.2354 47.7255 62.7106 47.8439 63.1698C48.0254 63.8734 48.208 64.561 48.3917 65.2327C48.5851 65.9018 48.7948 66.6137 49.0207 67.3683C49.2441 68.1132 49.4877 68.9362 49.7514 69.8373C50.0224 70.7262 50.3274 71.747 50.6664 72.8997L46.8405 73.8241ZM56.6166 71.7869L52.7788 73.0895C52.484 71.3001 52.1616 69.5856 51.8116 67.9459C51.4688 66.2939 51.087 64.6521 50.666 63.0202C50.3686 61.8672 50.0517 60.7193 49.7151 59.5763C49.3859 58.4211 49.0198 57.2441 48.6168 56.0454L51.8692 55.0188C51.9051 55.2389 51.9446 55.4527 51.9878 55.6604C52.031 55.8682 52.0777 56.0697 52.1282 56.2652C52.334 55.6493 52.5995 55.1431 52.9245 54.7466C53.2568 54.3379 53.5811 54.0197 53.8976 53.7922C54.2554 53.5227 54.6344 53.3155 55.0347 53.1706C55.748 52.9866 56.3877 52.9414 56.9538 53.0351C57.5174 53.119 58.0057 53.2952 58.4189 53.5638C58.8296 53.8226 59.1637 54.1481 59.4211 54.5402C59.6761 54.9226 59.8552 55.3141 59.9586 55.7147C60.0644 56.1251 60.1276 56.5517 60.148 56.9946C60.1685 57.4374 60.1153 57.8576 59.9886 58.255C59.8691 58.6402 59.6612 58.9856 59.3649 59.2913C59.0758 59.5847 58.6772 59.797 58.1691 59.928C57.661 60.0591 57.2364 60.0696 56.8954 59.9596C56.5544 59.8495 56.2729 59.6877 56.051 59.4739C55.8364 59.2479 55.6694 59.0044 55.55 58.7434C55.4378 58.4701 55.3565 58.2358 55.3061 58.0403C55.2708 57.9035 55.2561 57.7458 55.2622 57.5671C55.2656 57.3786 55.2936 57.1838 55.3459 56.9827C55.3982 56.7816 55.4763 56.5791 55.58 56.3752C55.6812 56.1615 55.8106 55.9562 55.9682 55.7592C55.9046 55.7548 55.8373 55.7565 55.7663 55.7644C55.7052 55.7697 55.6453 55.78 55.5867 55.7951C55.0981 55.9211 54.7036 56.1896 54.4032 56.6006C54.1002 57.0018 53.8777 57.5126 53.7354 58.1328C53.603 58.7506 53.5397 59.4548 53.5456 60.2453C53.5613 61.0332 53.6386 61.8783 53.7775 62.7804C54.2171 64.2823 54.6724 65.7646 55.1434 67.2271C55.6145 68.6897 56.1055 70.2096 56.6166 71.7869ZM82.462 42.2345C82.8499 43.3746 83.2432 44.5758 83.6418 45.8382C83.8122 46.3778 83.9928 46.9565 84.1834 47.5743C84.374 48.1921 84.5673 48.8405 84.7633 49.5195C84.9568 50.1886 85.1504 50.8786 85.3441 51.5894C85.5452 52.2879 85.7364 52.9889 85.9179 53.6924C86.2733 55.0702 86.5231 56.4022 86.6673 57.6886C86.8116 58.9749 86.8056 60.1436 86.6495 61.1948C86.4933 62.2459 86.1598 63.1344 85.6488 63.8603C85.1378 64.5861 84.4035 65.0725 83.4459 65.3196C83.4263 65.3246 83.3371 65.3424 83.1783 65.373C83.0292 65.401 82.8298 65.4159 82.5802 65.4178C82.3305 65.4197 82.0428 65.3949 81.7169 65.3435C81.4007 65.2896 81.0659 65.1831 80.7122 65.0242C80.3586 64.8654 80.0032 64.6392 79.6461 64.3457C79.2865 64.0424 78.9507 63.6497 78.6387 63.1674C78.5621 63.7186 78.4249 64.1969 78.2273 64.6023C78.0296 65.0076 77.8083 65.3617 77.5634 65.6645C77.3159 65.9577 77.051 66.2032 76.7685 66.4011C76.4959 66.5965 76.2437 66.7501 76.012 66.862C75.7803 66.9738 75.5827 67.0561 75.4191 67.1087C75.2555 67.1613 75.1591 67.1914 75.1297 67.199C74.5435 67.3502 74.005 67.3432 73.5142 67.178C73.0358 67.02 72.5895 66.7444 72.1754 66.351C71.7685 65.9453 71.4001 65.4463 71.0701 64.854C70.7377 64.2519 70.4268 63.5922 70.1375 62.8748C69.8555 62.1451 69.594 61.3736 69.3529 60.5604C69.1217 59.7446 68.9002 58.9264 68.6884 58.1056C68.4969 57.363 68.3115 56.624 68.1322 55.8886C67.9504 55.1435 67.7749 54.4227 67.6057 53.7265C67.4463 53.0277 67.2945 52.3582 67.1502 51.718C67.0131 51.0655 66.8838 50.4632 66.7622 49.9109C66.4783 48.6085 66.2232 47.3769 65.9967 46.216L70.3214 45.2255C70.4281 46.4068 70.5695 47.6418 70.7456 48.9303C70.8256 49.4829 70.9157 50.0745 71.0158 50.7052C71.116 51.3359 71.2286 51.9947 71.3537 52.6815C71.486 53.356 71.6295 54.0537 71.7841 54.7746C71.9363 55.4857 72.1031 56.193 72.2846 56.8965C72.4232 57.434 72.5631 57.9763 72.7043 58.5235C72.8552 59.0681 73.0072 59.5969 73.1604 60.1097C73.3207 60.6103 73.4833 61.079 73.6481 61.5159C73.8104 61.943 73.9796 62.3162 74.1558 62.6355C74.3392 62.9425 74.5245 63.1761 74.7117 63.3362C74.9062 63.4841 75.1109 63.5303 75.3259 63.4748C75.5311 63.4219 75.6888 63.2457 75.7992 62.9463C75.9193 62.6443 75.9948 62.2705 76.0258 61.8248C76.064 61.3669 76.07 60.8651 76.0439 60.3195C76.025 59.7616 75.9818 59.21 75.914 58.6647C75.8536 58.1071 75.7786 57.5741 75.6892 57.0657C75.5997 56.5573 75.5083 56.1223 75.4151 55.7608C75.3848 55.6435 75.3507 55.4908 75.3125 55.3026C75.2697 55.1365 75.2155 54.9264 75.15 54.6724C75.0917 54.406 75.0146 54.0872 74.9189 53.7159C74.7273 52.9733 74.4592 51.9742 74.1145 50.7188C73.7673 49.4535 73.3284 47.8733 72.7978 45.978L76.5585 45.1642C76.8763 46.7601 77.1484 48.1176 77.3745 49.2369C77.6007 50.3562 77.7901 51.2922 77.9425 52.0449C78.0925 52.7878 78.2157 53.3865 78.3121 53.8411C78.4157 54.2833 78.4967 54.6376 78.555 54.9039C78.6205 55.158 78.6709 55.3534 78.7062 55.4902C78.739 55.6172 78.7705 55.7394 78.8007 55.8566C78.9091 56.2768 79.041 56.7274 79.1963 57.2084C79.3589 57.6771 79.5362 58.142 79.7281 58.6032C79.9297 59.0618 80.1423 59.502 80.3657 59.9237C80.5964 60.3332 80.8243 60.6913 81.0493 60.998C81.2815 61.2924 81.5121 61.5195 81.7409 61.6794C81.9795 61.8367 82.2063 61.8876 82.4212 61.8321C82.7534 61.7464 82.9694 61.4927 83.069 61.071C83.1784 60.6468 83.2001 60.1045 83.134 59.4441C83.0751 58.7715 82.9519 58.0112 82.7645 57.1634C82.5745 56.3057 82.3573 55.403 82.1128 54.4551C81.7322 52.9797 81.3464 51.6254 80.9553 50.3923C80.5741 49.1567 80.2098 48.0678 79.8626 47.1257C79.5128 46.1738 79.196 45.3697 78.9121 44.7134C78.6354 44.0448 78.4175 43.5435 78.2584 43.2094L82.462 42.2345ZM100.118 56.5638C100.267 57.1403 100.275 57.7166 100.142 58.2928C100.009 58.8689 99.7658 59.4007 99.4121 59.8879C99.0584 60.3752 98.6064 60.8044 98.056 61.1756C97.5057 61.5469 96.8885 61.8207 96.2045 61.9972C95.7452 62.1156 95.2647 62.1718 94.7629 62.1658C94.2612 62.1598 93.7575 62.0656 93.2519 61.8834C92.7464 61.7012 92.2413 61.4198 91.7367 61.0393C91.2321 60.6588 90.7487 60.1582 90.2864 59.5376C89.8338 58.9144 89.4047 58.1601 88.9992 57.2746C88.6009 56.3769 88.2454 55.3222 87.9329 54.1106C87.638 52.9674 87.4553 51.9359 87.3848 51.0161C87.324 50.0939 87.346 49.2701 87.4508 48.5449C87.5652 47.8171 87.7514 47.1855 88.0093 46.65C88.2647 46.1047 88.5672 45.6411 88.9168 45.2591C89.2736 44.8648 89.6616 44.5511 90.0809 44.3179C90.5099 44.0822 90.9442 43.9076 91.3839 43.7942C92.0386 43.6253 92.6868 43.5727 93.3285 43.6365C93.9678 43.6904 94.5601 43.8659 95.1057 44.1629C95.6513 44.4598 96.1292 44.8785 96.5396 45.4188C96.9571 45.9468 97.2667 46.6016 97.4684 47.3833C97.6499 48.0868 97.6873 48.838 97.5807 49.6366C97.4813 50.423 97.2314 51.2118 96.8311 52.0029C96.4282 52.7842 95.8746 53.5471 95.1704 54.2915C94.4734 55.0236 93.6217 55.681 92.6152 56.2637C92.8301 56.8544 93.0556 57.3851 93.2916 57.8557C93.5374 58.3238 93.7887 58.7123 94.0456 59.0212C94.3122 59.3276 94.5831 59.5495 94.8582 59.687C95.1432 59.8219 95.4371 59.8503 95.74 59.7722C95.9329 59.712 96.1097 59.6299 96.2705 59.5259C96.4142 59.4367 96.5504 59.3182 96.679 59.1704C96.8174 59.0201 96.9139 58.8284 96.9684 58.5955C96.6841 58.5438 96.4496 58.4427 96.2649 58.2924C96.0802 58.142 95.9323 57.9926 95.821 57.8441C95.6924 57.6689 95.5955 57.475 95.5303 57.2626C95.4093 56.7935 95.4039 56.3885 95.5139 56.0475C95.6239 55.7065 95.7846 55.4201 95.9958 55.1885C96.207 54.9568 96.4369 54.7777 96.6856 54.651C96.9318 54.5145 97.1331 54.4261 97.2894 54.3858C97.4555 54.343 97.6647 54.3255 97.9168 54.3334C98.1787 54.3388 98.4473 54.4102 98.7224 54.5477C98.9976 54.6851 99.2599 54.9144 99.5096 55.2356C99.7664 55.5446 99.9692 55.9873 100.118 56.5638ZM94.1195 48.2784C94.0288 47.9267 93.9089 47.6033 93.7598 47.3082C93.618 47.0009 93.4533 46.7464 93.2658 46.5446C93.0881 46.3403 92.8887 46.1938 92.6678 46.1049C92.4541 46.0037 92.23 45.9833 91.9955 46.0438C91.5949 46.1471 91.3154 46.4172 91.1571 46.8541C90.9964 47.2811 90.9159 47.8177 90.9159 48.4639C90.9158 49.11 90.9885 49.8364 91.1341 50.643C91.2796 51.4496 91.4633 52.2829 91.6851 53.1427L91.9611 54.2127C92.3913 53.8203 92.7699 53.3892 93.0968 52.9192C93.4335 52.4468 93.6979 51.9565 93.8899 51.4485C94.0891 50.9281 94.2088 50.4022 94.2489 49.8708C94.2987 49.3369 94.2556 48.8061 94.1195 48.2784ZM100.928 36.1894C101.14 37.4997 101.366 38.7964 101.603 40.0796C101.837 41.353 102.084 42.6337 102.344 43.9216C102.522 43.2398 102.76 42.6886 103.058 42.2678C103.354 41.8373 103.647 41.501 103.939 41.259C104.285 40.9823 104.638 40.7765 104.999 40.6416C105.703 40.4601 106.366 40.4454 106.989 40.5974C107.612 40.7494 108.201 41.1341 108.756 41.7517C109.318 42.3569 109.85 43.2255 110.35 44.3574C110.848 45.4795 111.325 46.9249 111.782 48.6935C112.202 50.3253 112.4 51.7385 112.375 52.9331C112.357 54.1154 112.192 55.1115 111.88 55.9215C111.575 56.7193 111.162 57.3416 110.642 57.7885C110.133 58.2426 109.591 58.544 109.015 58.6927C108.956 58.7079 108.82 58.7272 108.608 58.7509C108.407 58.7817 108.149 58.7702 107.833 58.7163C107.519 58.6721 107.17 58.5695 106.784 58.4084C106.399 58.2473 106.003 57.9847 105.596 57.6206L106.012 59.2328L102.699 60.0249C102.419 58.5756 102.111 57.1387 101.775 55.7143C101.448 54.2874 101.102 52.8656 100.737 51.4487C100.122 49.0645 99.4728 46.7099 98.7897 44.385C98.1041 42.0503 97.4 39.7047 96.6775 37.3482L100.928 36.1894ZM107.231 56.261C107.285 56.2679 107.336 56.2651 107.385 56.2525C107.443 56.2374 107.502 56.2223 107.561 56.2071C107.824 56.1391 108.075 55.9806 108.313 55.7316C108.559 55.4703 108.739 55.0798 108.855 54.5601C108.971 54.0403 109.007 53.3694 108.961 52.5474C108.914 51.7156 108.732 50.689 108.417 49.4676C108.135 48.3732 107.847 47.4783 107.553 46.783C107.266 46.0753 106.978 45.5243 106.689 45.13C106.399 44.7357 106.115 44.4808 105.835 44.3654C105.552 44.2402 105.284 44.2104 105.03 44.276C104.766 44.344 104.541 44.4803 104.354 44.6849C104.174 44.8771 104.027 45.1132 103.911 45.3931C103.793 45.6632 103.699 45.9637 103.628 46.2946C103.567 46.6231 103.52 46.9477 103.488 47.2686C103.454 47.5797 103.433 47.8821 103.425 48.1759C103.425 48.4573 103.429 48.6959 103.438 48.8917C103.876 50.8317 104.34 52.7496 104.829 54.6452C105.174 55.0563 105.495 55.3696 105.79 55.5852C106.085 55.8008 106.34 55.9593 106.554 56.0605C106.804 56.1834 107.03 56.2503 107.231 56.261ZM122.236 40.1347C122.352 40.5842 122.367 40.9867 122.282 41.3422C122.196 41.6977 122.061 42.0035 121.877 42.2594C121.693 42.5153 121.485 42.72 121.254 42.8735C121.023 43.027 120.819 43.1264 120.643 43.1717C120.467 43.2171 120.25 43.242 119.99 43.2464C119.728 43.241 119.464 43.1842 119.196 43.0761C118.938 42.9654 118.696 42.7935 118.469 42.5602C118.239 42.3172 118.069 41.9807 117.958 41.5507C117.908 41.3137 117.892 41.0727 117.913 40.8278C117.931 40.6148 117.982 40.388 118.065 40.1475C118.156 39.8947 118.313 39.6513 118.534 39.4171C118.292 39.2084 118.066 39.0583 117.855 38.9669C117.643 38.8755 117.461 38.8132 117.306 38.7801C117.12 38.7448 116.956 38.735 116.814 38.7507C116.511 38.8289 116.254 38.963 116.042 39.153C115.828 39.3333 115.66 39.5487 115.537 39.7993C115.421 40.0375 115.349 40.3012 115.319 40.5902C115.299 40.8767 115.326 41.1617 115.399 41.445C115.492 41.8066 115.601 42.1276 115.725 42.4081C115.85 42.6887 116.039 42.9577 116.293 43.2153C116.547 43.4728 116.895 43.7321 117.338 43.9931C117.78 44.2541 118.365 44.541 119.092 44.8538C119.819 45.1665 120.465 45.4897 121.03 45.8232C121.593 46.147 122.076 46.486 122.481 46.8403C122.885 47.1946 123.217 47.5728 123.477 47.9747C123.734 48.3668 123.923 48.7974 124.044 49.2664C124.125 49.5791 124.179 49.9299 124.206 50.3188C124.241 50.6955 124.229 51.0945 124.171 51.5159C124.12 51.9251 124.013 52.3383 123.85 52.7556C123.694 53.1606 123.466 53.5478 123.165 53.9171C122.874 54.284 122.499 54.6099 122.041 54.8948C121.596 55.1869 121.055 55.4149 120.42 55.5787C119.463 55.8257 118.61 55.8945 117.863 55.7851C117.115 55.6756 116.47 55.4773 115.927 55.1901C115.391 54.8906 114.963 54.5426 114.642 54.146C114.33 53.747 114.131 53.3764 114.042 53.0344C113.949 52.6729 113.906 52.3244 113.913 51.9891C113.921 51.6537 113.987 51.3448 114.112 51.0624C114.247 50.7775 114.445 50.5337 114.705 50.3311C114.973 50.1161 115.317 49.9545 115.737 49.8461C116.089 49.7554 116.42 49.7272 116.731 49.7616C117.052 49.7934 117.343 49.8904 117.603 50.0524C117.871 50.2022 118.103 50.4134 118.298 50.6861C118.494 50.9587 118.641 51.2856 118.739 51.6667C118.772 51.8353 118.782 52.0151 118.769 52.2061C118.758 52.3653 118.716 52.5479 118.644 52.7541C118.572 52.9602 118.454 53.1679 118.289 53.3772C118.454 53.4494 118.607 53.4984 118.749 53.5243C118.898 53.5378 119.029 53.5405 119.142 53.5323C119.267 53.5314 119.388 53.5158 119.505 53.4856C119.632 53.4528 119.77 53.3808 119.918 53.2696C120.074 53.146 120.21 52.9859 120.326 52.7892C120.442 52.5926 120.525 52.368 120.574 52.1155C120.624 51.8631 120.608 51.5805 120.527 51.2678C120.447 50.9551 120.344 50.6793 120.22 50.4404C120.103 50.1892 119.922 49.9495 119.675 49.7212C119.436 49.4807 119.112 49.2359 118.704 48.9869C118.296 48.7378 117.768 48.4469 117.119 48.1139C116.47 47.781 115.884 47.4476 115.36 47.1138C114.834 46.7702 114.367 46.3955 113.96 45.9898C113.563 45.5816 113.223 45.1326 112.941 44.6427C112.658 44.1529 112.435 43.5904 112.271 42.9553C112.11 42.3299 112.076 41.6926 112.169 41.0433C112.271 40.3915 112.495 39.7816 112.838 39.2137C113.179 38.6359 113.642 38.1307 114.229 37.698C114.813 37.2556 115.511 36.9297 116.322 36.7205C117.142 36.5088 117.884 36.4531 118.545 36.5534C119.207 36.6537 119.784 36.8697 120.276 37.2013C120.765 37.5232 121.174 37.9386 121.504 38.4477C121.833 38.9568 122.077 39.5191 122.236 40.1347ZM125.937 31.3327C126.018 31.6453 126.036 31.9585 125.992 32.2721C125.945 32.5759 125.845 32.8569 125.693 33.1151C125.541 33.3732 125.339 33.6023 125.089 33.8024C124.846 33.9903 124.568 34.1245 124.255 34.2052C123.942 34.2858 123.629 34.3041 123.315 34.2599C123.009 34.2035 122.727 34.0991 122.469 33.9468C122.211 33.7946 121.983 33.598 121.785 33.3572C121.595 33.1041 121.459 32.8212 121.379 32.5085C121.298 32.1958 121.281 31.8875 121.328 31.5837C121.382 31.2676 121.485 30.9804 121.637 30.7223C121.789 30.4642 121.987 30.2412 122.23 30.0534C122.481 29.8532 122.763 29.7128 123.075 29.6322C123.388 29.5515 123.697 29.5394 124.004 29.5959C124.317 29.64 124.603 29.7383 124.861 29.8905C125.12 30.0428 125.344 30.2455 125.534 30.4986C125.722 30.742 125.856 31.02 125.937 31.3327ZM127.082 35.7737C127.203 36.5658 127.35 37.4189 127.524 38.333C127.704 39.2348 127.896 40.1597 128.099 41.1078C128.312 42.0535 128.53 43.0027 128.755 43.9555C128.98 44.9084 129.199 45.816 129.411 46.6784C129.623 47.5408 129.821 48.3495 130.005 49.1044C130.197 49.847 130.362 50.487 130.501 51.0244L130.928 52.6807L127.631 53.6562C127.477 52.9769 127.317 52.3197 127.154 51.6846C126.99 51.0494 126.826 50.4143 126.662 49.7792C126.377 48.675 126.09 47.6027 125.801 46.5622C125.509 45.5119 125.203 44.4655 124.882 43.4228C124.57 42.3776 124.241 41.3215 123.893 40.2545C123.544 39.1875 123.171 38.0852 122.774 36.9477L127.082 35.7737ZM132.588 27.7879C132.77 28.8145 132.962 29.8227 133.165 30.8124C133.366 31.7924 133.568 32.7772 133.771 33.7669C134.196 33.6365 134.617 33.5122 135.035 33.394C135.45 33.2661 135.874 33.1308 136.306 32.988L137.332 36.7251C136.843 36.7679 136.363 36.8241 135.891 36.8937C135.419 36.9633 134.959 37.0402 134.512 37.1243C134.697 37.9624 134.889 38.7883 135.089 39.6018C135.298 40.4128 135.51 41.2336 135.724 42.0642C136.107 43.5494 136.502 45.0211 136.91 46.4792C137.327 47.9348 137.766 49.3952 138.227 50.8602L134.387 51.7884C133.922 49.4594 133.433 47.1415 132.921 44.8349C132.417 42.516 131.88 40.1899 131.309 37.8568C130.904 37.9822 130.5 38.1125 130.097 38.2477C129.691 38.3731 129.277 38.5059 128.855 38.6461L128.076 35.1422C128.485 35.0681 128.887 34.9905 129.282 34.9092C129.686 34.8156 130.085 34.7282 130.481 34.6469C130.229 33.6698 129.968 32.7001 129.699 31.7378C129.428 30.7657 129.155 29.7887 128.881 28.8068L132.588 27.7879ZM151.417 43.331C151.566 43.9075 151.574 44.4838 151.441 45.06C151.308 45.6362 151.065 46.1679 150.711 46.6551C150.358 47.1424 149.906 47.5716 149.355 47.9429C148.805 48.3141 148.188 48.5879 147.504 48.7644C147.045 48.8828 146.564 48.9391 146.062 48.933C145.56 48.927 145.057 48.8328 144.551 48.6506C144.046 48.4684 143.541 48.187 143.036 47.8065C142.531 47.426 142.048 46.9254 141.586 46.3048C141.133 45.6816 140.704 44.9273 140.298 44.0418C139.9 43.1441 139.545 42.0895 139.232 40.8778C138.937 39.7346 138.755 38.7031 138.684 37.7833C138.623 36.8611 138.645 36.0373 138.75 35.3121C138.865 34.5843 139.051 33.9527 139.309 33.4172C139.564 32.8719 139.866 32.4083 140.216 32.0263C140.573 31.632 140.961 31.3183 141.38 31.0851C141.809 30.8494 142.244 30.6748 142.683 30.5614C143.338 30.3925 143.986 30.3399 144.628 30.4037C145.267 30.4576 145.859 30.6331 146.405 30.9301C146.951 31.2271 147.429 31.6457 147.839 32.186C148.256 32.714 148.566 33.3688 148.768 34.1505C148.949 34.854 148.987 35.6052 148.88 36.4039C148.781 37.1903 148.531 37.979 148.13 38.7701C147.727 39.5514 147.174 40.3143 146.47 41.0587C145.773 41.7908 144.921 42.4482 143.914 43.0309C144.129 43.6216 144.355 44.1523 144.591 44.6229C144.837 45.091 145.088 45.4795 145.345 45.7884C145.611 46.0948 145.882 46.3167 146.158 46.4542C146.442 46.5891 146.736 46.6175 147.039 46.5394C147.232 46.4792 147.409 46.3971 147.57 46.2931C147.714 46.2039 147.85 46.0854 147.978 45.9376C148.117 45.7873 148.213 45.5956 148.268 45.3627C147.983 45.311 147.749 45.21 147.564 45.0596C147.38 44.9092 147.232 44.7598 147.12 44.6113C146.992 44.4361 146.895 44.2422 146.83 44.0298C146.709 43.5607 146.703 43.1557 146.813 42.8147C146.923 42.4737 147.084 42.1873 147.295 41.9557C147.506 41.724 147.736 41.5449 147.985 41.4182C148.231 41.2817 148.432 41.1933 148.589 41.153C148.755 41.1102 148.964 41.0927 149.216 41.1006C149.478 41.106 149.747 41.1774 150.022 41.3149C150.297 41.4523 150.559 41.6816 150.809 42.0029C151.066 42.3118 151.268 42.7545 151.417 43.331ZM145.419 35.0456C145.328 34.6939 145.208 34.3705 145.059 34.0754C144.917 33.7681 144.753 33.5136 144.565 33.3118C144.387 33.1076 144.188 32.961 143.967 32.8721C143.753 32.7709 143.529 32.7505 143.295 32.811C142.894 32.9143 142.615 33.1844 142.456 33.6213C142.296 34.0483 142.215 34.585 142.215 35.2311C142.215 35.8773 142.288 36.6036 142.433 37.4102C142.579 38.2168 142.763 39.0501 142.984 39.9099L143.26 40.9799C143.691 40.5875 144.069 40.1564 144.396 39.6864C144.733 39.214 144.997 38.7237 145.189 38.2157C145.388 37.6953 145.508 37.1694 145.548 36.638C145.598 36.1041 145.555 35.5733 145.419 35.0456ZM160.017 42.6132C159.823 41.8609 159.61 41.1135 159.376 40.3712C159.153 39.6264 158.925 38.8828 158.692 38.1405C158.456 37.3884 158.22 36.6363 157.985 35.8843C157.756 35.1199 157.54 34.342 157.336 33.5505C157.121 32.7199 156.929 31.8733 156.759 31.0106C156.595 30.1356 156.49 29.2822 156.442 28.4504C156.392 27.6088 156.414 26.8059 156.509 26.0415C156.601 25.2674 156.8 24.5647 157.106 23.9334C157.412 23.3021 157.844 22.7531 158.401 22.2863C158.958 21.8196 159.666 21.4753 160.526 21.2535C161.347 21.0418 162.094 20.9897 162.768 21.0973C163.439 21.195 164.043 21.4145 164.579 21.7556C165.125 22.0942 165.608 22.5323 166.028 23.0701C166.458 23.6053 166.837 24.2058 167.165 24.8715C167.503 25.5347 167.799 26.2399 168.055 26.9869C168.31 27.7339 168.534 28.4837 168.729 29.236C168.779 29.4315 168.818 29.6037 168.846 29.7528C168.884 29.8994 168.921 30.0619 168.956 30.2403C168.999 30.4064 169.041 30.6092 169.082 30.8488C169.133 31.0858 169.197 31.3974 169.276 31.7835C169.352 32.1599 169.446 32.6254 169.558 33.1802C169.68 33.7324 169.829 34.4129 170.007 35.2217C170.184 36.0305 170.394 36.9872 170.638 38.0916C170.878 39.1863 171.167 40.4667 171.503 41.9327L167.079 42.9019C166.958 41.7451 166.817 40.5934 166.657 39.4467C166.504 38.2877 166.347 37.2132 166.185 36.2232C165.418 36.3586 164.711 36.5095 164.066 36.6759C163.734 36.7616 163.423 36.8471 163.132 36.9325C162.842 37.0179 162.586 37.0993 162.367 37.1769C162.527 37.6774 162.7 38.206 162.885 38.7627C163.07 39.3193 163.262 39.8796 163.459 40.4435C163.657 41.0074 163.858 41.5652 164.063 42.1168C164.265 42.6586 164.471 43.1735 164.68 43.6614L160.563 44.8487C160.489 44.4821 160.404 44.1131 160.308 43.7418C160.21 43.3608 160.113 42.9846 160.017 42.6132ZM161.393 34.1296C161.691 34.0735 161.982 34.009 162.265 33.9359C162.549 33.8628 162.827 33.7909 163.101 33.7204C164.146 33.4507 164.979 33.2046 165.599 32.9821C165.479 32.2732 165.357 31.5595 165.234 30.8408C165.121 30.1196 164.961 29.3584 164.755 28.5572C164.319 26.8667 163.811 25.6272 163.233 24.8385C162.661 24.0375 162.039 23.724 161.364 23.8979C160.993 23.9937 160.685 24.2138 160.44 24.5583C160.196 24.9028 160.028 25.3838 159.937 26.0012C159.854 26.6064 159.852 27.3468 159.932 28.2224C160.022 29.0955 160.214 30.1037 160.509 31.2469C160.612 31.6475 160.733 32.075 160.871 32.5292C161.016 32.9711 161.19 33.5046 161.393 34.1296ZM181.186 39.1693C181.105 38.7734 181.028 38.397 180.957 38.0402C180.893 37.6711 180.833 37.3167 180.777 36.9769C180.596 37.6489 180.355 38.1904 180.055 38.6013C179.764 39.0098 179.478 39.3338 179.196 39.5733C178.86 39.8475 178.511 40.052 178.15 40.1869C177.427 40.3734 176.75 40.3552 176.119 40.1323C175.489 39.9094 174.912 39.5111 174.389 38.9374C173.866 38.3637 173.396 37.6354 172.981 36.7525C172.573 35.8573 172.22 34.8332 171.923 33.6802C171.507 32.0679 171.152 30.4919 170.859 28.9521C170.576 27.4098 170.364 25.8805 170.223 24.3641L174.052 23.8142C174.117 25.0374 174.205 26.1247 174.315 27.076C174.432 28.015 174.544 28.8145 174.652 29.4745C174.778 30.2445 174.908 30.9093 175.041 31.4688C175.281 32.397 175.519 33.2005 175.757 33.8791C175.992 34.548 176.242 35.0931 176.507 35.5146C176.779 35.9237 177.076 36.2067 177.398 36.3633C177.72 36.52 178.086 36.5454 178.497 36.4396C178.767 36.3176 178.995 36.0504 179.181 35.6378C179.26 35.461 179.334 35.2438 179.404 34.9863C179.47 34.719 179.524 34.4029 179.565 34.0379C179.607 33.6729 179.628 33.2506 179.629 32.7708C179.631 32.2911 179.608 31.7394 179.562 31.1156C179.433 30.534 179.295 29.9599 179.149 29.3932C179 28.8167 178.84 28.1962 178.669 27.5317C178.487 26.8282 178.289 26.0611 178.075 25.2306C177.861 24.4 177.61 23.4694 177.324 22.4387L180.666 21.6391C180.809 22.3943 180.947 23.0932 181.082 23.7359C181.214 24.3689 181.342 24.9663 181.466 25.5283C181.597 26.078 181.721 26.5984 181.837 27.0895C181.954 27.5806 182.071 28.0558 182.189 28.515C182.371 29.2186 182.553 29.9062 182.737 30.5779C182.931 31.2471 183.14 31.9589 183.366 32.7135C183.59 33.4584 183.833 34.2814 184.097 35.1825C184.368 36.0714 184.673 37.0922 185.012 38.2449L181.186 39.1693ZM192.724 12.5727C193.236 15.4838 193.796 18.3616 194.404 21.206C195.01 24.0406 195.682 26.8845 196.417 29.7377C196.909 31.6431 197.431 33.5459 197.984 35.4459L194.657 36.3666L194.011 33.438C193.809 34.2717 193.554 34.9369 193.244 35.4336C192.934 35.9303 192.634 36.3205 192.342 36.6041C192 36.9322 191.638 37.1662 191.257 37.3061C190.759 37.4347 190.219 37.4228 189.638 37.2705C189.057 37.1182 188.471 36.7481 187.882 36.1602C187.293 35.5723 186.717 34.7359 186.156 33.6509C185.592 32.5562 185.085 31.1343 184.634 29.3852C184.336 28.2322 184.143 27.1984 184.052 26.2837C183.96 25.3592 183.946 24.5394 184.012 23.8242C184.078 23.109 184.21 22.4912 184.409 21.9709C184.616 21.4382 184.865 20.9885 185.156 20.6216C185.456 20.2522 185.792 19.9572 186.162 19.7367C186.533 19.5161 186.913 19.3553 187.304 19.2545C187.573 19.206 187.873 19.1964 188.203 19.2258C188.483 19.258 188.809 19.3302 189.182 19.4424C189.562 19.5424 189.971 19.7339 190.408 20.017C189.79 17.8629 189.145 15.7261 188.473 13.6067L192.724 12.5727ZM192.807 28.5275C192.32 26.6416 191.803 24.7584 191.256 22.8779C191.108 22.7493 190.949 22.6183 190.779 22.485C190.619 22.3491 190.448 22.2317 190.266 22.1327C190.082 22.024 189.895 21.947 189.707 21.9019C189.518 21.8568 189.331 21.8582 189.145 21.9061C188.871 21.9767 188.618 22.1463 188.385 22.4148C188.159 22.671 187.995 23.0626 187.891 23.5896C187.785 24.1068 187.758 24.7703 187.81 25.5801C187.873 26.3873 188.055 27.3772 188.357 28.5497C188.637 29.6343 188.918 30.5207 189.2 31.2088C189.481 31.8969 189.761 32.4345 190.038 32.8216C190.312 33.1989 190.58 33.4478 190.84 33.5682C191.098 33.6789 191.349 33.7027 191.593 33.6397C191.965 33.5439 192.251 33.3398 192.451 33.0275C192.659 32.7029 192.806 32.342 192.891 31.9448C192.986 31.5452 193.044 31.1446 193.066 30.743C193.085 30.3317 193.099 29.984 193.109 29.7L192.807 28.5275ZM198.84 12.527C198.921 12.8396 198.939 13.1528 198.895 13.4664C198.849 13.7702 198.749 14.0512 198.597 14.3094C198.445 14.5675 198.243 14.7966 197.992 14.9967C197.749 15.1846 197.471 15.3188 197.158 15.3995C196.846 15.4801 196.533 15.4984 196.219 15.4542C195.913 15.3978 195.63 15.2934 195.372 15.1411C195.114 14.9889 194.886 14.7923 194.689 14.5515C194.498 14.2984 194.363 14.0155 194.282 13.7028C194.202 13.3901 194.185 13.0818 194.231 12.778C194.285 12.4619 194.388 12.1747 194.54 11.9166C194.693 11.6585 194.891 11.4355 195.134 11.2477C195.385 11.0476 195.666 10.9072 195.979 10.8265C196.292 10.7458 196.601 10.7337 196.907 10.7902C197.221 10.8344 197.507 10.9326 197.765 11.0848C198.023 11.2371 198.247 11.4398 198.438 11.6929C198.626 11.9363 198.76 12.2143 198.84 12.527ZM199.986 16.968C200.107 17.7601 200.254 18.6132 200.427 19.5273C200.608 20.4291 200.8 21.354 201.002 22.3022C201.215 23.2478 201.434 24.197 201.659 25.1498C201.884 26.1027 202.102 27.0103 202.314 27.8727C202.526 28.7351 202.725 29.5438 202.909 30.2987C203.1 31.0413 203.266 31.6813 203.404 32.2187L203.831 33.875L200.535 34.8505C200.38 34.1712 200.221 33.514 200.057 32.8789C199.893 32.2437 199.73 31.6086 199.566 30.9735C199.281 29.8693 198.994 28.797 198.705 27.7565C198.413 26.7063 198.106 25.6598 197.785 24.6171C197.474 23.5719 197.144 22.5158 196.796 21.4488C196.448 20.3818 196.075 19.2796 195.677 18.142L199.986 16.968ZM205.492 8.98219C205.674 10.0088 205.866 11.017 206.069 12.0067C206.27 12.9867 206.472 13.9715 206.675 14.9612C207.1 14.8308 207.521 14.7065 207.939 14.5883C208.354 14.4604 208.777 14.3251 209.21 14.1823L210.236 17.9194C209.747 17.9622 209.266 18.0184 208.795 18.088C208.323 18.1576 207.863 18.2345 207.416 18.3186C207.601 19.1567 207.793 19.9826 207.992 20.7961C208.202 21.6071 208.413 22.4279 208.628 23.2585C209.011 24.7437 209.406 26.2154 209.813 27.6735C210.23 29.1291 210.67 30.5895 211.131 32.0545L207.29 32.9827C206.825 30.6537 206.337 28.3359 205.825 26.0292C205.321 23.7103 204.783 21.3842 204.213 19.0511C203.807 19.1765 203.403 19.3068 203 19.442C202.595 19.5674 202.181 19.7002 201.759 19.8404L200.98 16.3365C201.388 16.2624 201.79 16.1848 202.186 16.1035C202.589 16.0099 202.989 15.9225 203.385 15.8412C203.133 14.8641 202.872 13.8944 202.603 12.9321C202.331 11.96 202.058 10.983 201.784 10.0011L205.492 8.98219ZM84.5478 105.407L80.7805 106.801C80.6312 106.141 80.4706 105.458 80.2989 104.752C80.1345 104.034 79.9664 103.321 79.7947 102.615C79.623 101.909 79.455 101.218 79.2909 100.541C79.1242 99.8546 78.9628 99.2085 78.8065 98.6027C78.4483 97.1735 78.0915 95.7701 77.7361 94.3923C77.4087 93.1637 77.0865 91.9754 76.7696 90.8274C76.6338 90.3413 76.4893 89.8419 76.3362 89.3291C76.1928 88.8137 76.0471 88.3094 75.899 87.8161C75.7509 87.3228 75.6055 86.8601 75.4628 86.4279C75.3273 85.9835 75.1946 85.5904 75.0648 85.2487L78.713 84.1201C78.8497 84.731 78.9915 85.3614 79.1383 86.0113C79.2924 86.649 79.4464 87.2866 79.6005 87.9243C79.752 88.5522 79.8985 89.1605 80.04 89.7493C80.1912 90.3356 80.3324 90.8828 80.4634 91.3909C81.1213 93.9412 81.7782 96.3667 82.4342 98.6673C83.0975 100.956 83.802 103.202 84.5478 105.407ZM93.3274 88.9011C93.4434 89.3506 93.4586 89.7531 93.3731 90.1086C93.2877 90.4641 93.1529 90.7698 92.9688 91.0258C92.7847 91.2817 92.577 91.4864 92.3456 91.6399C92.1142 91.7933 91.9106 91.8928 91.7347 91.9381C91.5588 91.9835 91.3412 92.0084 91.0818 92.0128C90.8199 92.0074 90.5551 91.9506 90.2875 91.8425C90.0297 91.7318 89.7873 91.5598 89.5604 91.3266C89.331 91.0835 89.1608 90.747 89.0499 90.3171C88.9992 90.0801 88.9839 89.8391 89.0041 89.5942C89.0221 89.3811 89.073 89.1544 89.1569 88.9139C89.248 88.6611 89.4041 88.4176 89.6251 88.1835C89.3836 87.9748 89.1573 87.8247 88.9462 87.7333C88.735 87.6419 88.5522 87.5796 88.3978 87.5465C88.2115 87.5112 88.0474 87.5014 87.9056 87.5171C87.6027 87.5953 87.3455 87.7293 87.1339 87.9194C86.9199 88.0997 86.7514 88.3151 86.6285 88.5656C86.5128 88.8039 86.4401 89.0676 86.4104 89.3566C86.3905 89.6431 86.4171 89.928 86.4902 90.2114C86.5835 90.5729 86.6924 90.894 86.8168 91.1745C86.9413 91.4551 87.1306 91.7241 87.3846 91.9816C87.6386 92.2392 87.9869 92.4985 88.4294 92.7595C88.8719 93.0205 89.4565 93.3074 90.1833 93.6202C90.9101 93.9329 91.5562 94.256 92.1217 94.5896C92.6846 94.9133 93.168 95.2524 93.5721 95.6067C93.9761 95.961 94.3081 96.3391 94.5681 96.741C94.8256 97.1332 95.0148 97.5637 95.1358 98.0328C95.2165 98.3454 95.2705 98.6963 95.2979 99.0852C95.3325 99.4619 95.3208 99.8609 95.2628 100.282C95.212 100.691 95.1049 101.105 94.9416 101.522C94.7856 101.927 94.5572 102.314 94.2564 102.684C93.9655 103.05 93.591 103.376 93.133 103.661C92.6873 103.953 92.1468 104.181 91.5117 104.345C90.5541 104.592 89.7017 104.661 88.9543 104.551C88.207 104.442 87.5618 104.244 87.0188 103.956C86.483 103.657 86.0545 103.309 85.7334 102.912C85.422 102.513 85.2222 102.143 85.134 101.801C85.0407 101.439 84.9978 101.091 85.005 100.755C85.0123 100.42 85.0785 100.111 85.2037 99.8288C85.3386 99.5439 85.5363 99.3001 85.7967 99.0975C86.0643 98.8825 86.4082 98.7209 86.8283 98.6125C87.1801 98.5217 87.5115 98.4936 87.8226 98.528C88.1435 98.5598 88.4343 98.6568 88.6949 98.8188C88.9628 98.9686 89.1945 99.1798 89.3898 99.4524C89.5852 99.7251 89.7321 100.052 89.8304 100.433C89.8635 100.602 89.8734 100.781 89.8601 100.973C89.8491 101.132 89.8076 101.314 89.7357 101.52C89.6638 101.727 89.5454 101.934 89.3806 102.144C89.5451 102.216 89.6984 102.265 89.8406 102.291C89.99 102.304 90.121 102.307 90.2335 102.299C90.3583 102.298 90.4793 102.282 90.5966 102.252C90.7236 102.219 90.8614 102.147 91.0098 102.036C91.1655 101.912 91.3014 101.752 91.4174 101.556C91.5334 101.359 91.6162 101.134 91.6657 100.882C91.7152 100.629 91.6997 100.347 91.619 100.034C91.5383 99.7215 91.4359 99.4457 91.3118 99.2068C91.1949 98.9556 91.0132 98.7158 90.7667 98.4876C90.5275 98.2471 90.2038 98.0023 89.7957 97.7533C89.3875 97.5042 88.8591 97.2132 88.2105 96.8803C87.5619 96.5474 86.9756 96.214 86.4518 95.8802C85.9255 95.5366 85.4589 95.1619 85.052 94.7562C84.6549 94.348 84.315 93.899 84.0323 93.4091C83.7497 92.9193 83.5264 92.3568 83.3626 91.7217C83.2012 91.0963 83.1671 90.459 83.2602 89.8097C83.363 89.1579 83.5861 88.548 83.9294 87.98C84.2701 87.4023 84.7338 86.8971 85.3205 86.4644C85.9046 86.0219 86.6021 85.6961 87.4131 85.4869C88.2339 85.2752 88.9751 85.2195 89.6367 85.3198C90.2983 85.4201 90.8751 85.636 91.3671 85.9677C91.8565 86.2895 92.2659 86.705 92.5952 87.2141C92.9246 87.7232 93.1686 88.2855 93.3274 88.9011ZM113.57 98.0456C113.291 97.8151 113.053 97.5379 112.855 97.2139C112.666 96.8873 112.507 96.574 112.378 96.2739C112.246 95.964 112.145 95.6931 112.074 95.4611C112.014 95.2266 111.977 95.0849 111.965 95.0361C111.884 94.7234 111.774 94.3559 111.633 93.9335C111.5 93.4988 111.331 93.0632 111.124 92.6266C110.915 92.1803 110.67 91.7538 110.388 91.3472C110.113 90.9283 109.787 90.5746 109.411 90.2861C109.044 89.9952 108.627 89.7952 108.162 89.686C107.703 89.5646 107.19 89.577 106.624 89.7232C106.545 89.7434 106.464 89.7697 106.378 89.8022C106.303 89.8321 106.226 89.8572 106.148 89.8773L108.503 99.0086L104.48 100.14C104.451 99.7829 104.396 99.3697 104.317 98.9004C104.245 98.4187 104.157 97.9152 104.052 97.3898C103.945 96.8545 103.829 96.301 103.702 95.7293C103.575 95.1575 103.446 94.5968 103.315 94.047C103.184 93.4973 103.052 92.9684 102.921 92.4603C102.798 91.9399 102.683 91.4745 102.577 91.0641C102.496 90.7514 102.373 90.2934 102.207 89.6901C102.051 89.0843 101.866 88.4077 101.652 87.6604C101.446 86.9008 101.226 86.1082 100.992 85.2827C100.765 84.4448 100.544 83.6474 100.328 82.8903C100.109 82.1234 99.9044 81.431 99.7138 80.8132C99.5304 80.1831 99.3848 79.6996 99.2771 79.3627C99.7868 79.1165 100.343 78.8897 100.946 78.682C101.547 78.4646 102.107 78.2732 102.627 78.1077C103.232 77.9099 103.838 77.7328 104.444 77.5765C105.411 77.2854 106.351 77.1315 107.264 77.1149C108.174 77.0885 109.013 77.2315 109.782 77.544C110.557 77.8441 111.233 78.3212 111.808 78.9753C112.39 79.6171 112.825 80.4534 113.112 81.4841C113.144 82.2573 113.07 83.0007 112.89 83.7142C112.811 84.0159 112.706 84.3348 112.574 84.6711C112.449 84.9951 112.281 85.3146 112.071 85.6294C111.87 85.9418 111.625 86.2446 111.336 86.5381C111.044 86.8217 110.703 87.0763 110.314 87.302C111.002 87.385 111.584 87.5421 112.061 87.7735C112.535 87.9952 112.937 88.2822 113.268 88.6346C113.596 88.9773 113.869 89.3705 114.088 89.8143C114.314 90.2458 114.513 90.7155 114.686 91.2233C114.866 91.7188 115.041 92.2364 115.212 92.776C115.38 93.3059 115.574 93.8392 115.796 94.376C115.983 94.776 116.184 95.1514 116.399 95.5022C116.593 95.8067 116.811 96.1098 117.056 96.4115C117.308 96.7009 117.579 96.9228 117.869 97.0773L113.57 98.0456ZM109.438 82.635C109.267 82.0121 108.985 81.4856 108.593 81.0553C108.423 80.8803 108.218 80.7142 107.98 80.5569C107.751 80.3971 107.479 80.2743 107.166 80.1885C106.861 80.1002 106.506 80.0564 106.1 80.057C105.703 80.055 105.256 80.1183 104.758 80.2469C104.377 80.3452 103.97 80.5073 103.539 80.7333L105.306 87.3431C105.49 87.327 105.672 87.3061 105.853 87.2802C106.031 87.2446 106.194 87.2079 106.34 87.1701C106.809 87.0491 107.212 86.8932 107.548 86.7022C107.885 86.5112 108.168 86.2974 108.399 86.0607C108.63 85.824 108.816 85.5779 108.959 85.3223C109.101 85.0667 109.212 84.8088 109.291 84.5488C109.47 83.9503 109.519 83.3123 109.438 82.635ZM128.342 90.5926C128.491 91.1691 128.499 91.7455 128.366 92.3216C128.233 92.8978 127.99 93.4295 127.636 93.9167C127.283 94.404 126.831 94.8332 126.28 95.2045C125.73 95.5757 125.113 95.8496 124.429 96.026C123.97 96.1445 123.489 96.2007 122.987 96.1946C122.485 96.1886 121.982 96.0945 121.476 95.9122C120.971 95.73 120.466 95.4486 119.961 95.0681C119.456 94.6876 118.973 94.1871 118.511 93.5664C118.058 92.9432 117.629 92.1889 117.223 91.3035C116.825 90.4058 116.47 89.3511 116.157 88.1394C115.862 86.9962 115.68 85.9647 115.609 85.045C115.548 84.1227 115.57 83.2989 115.675 82.5737C115.79 81.8459 115.976 81.2143 116.234 80.6788C116.489 80.1335 116.791 79.6699 117.141 79.2879C117.498 78.8937 117.886 78.5799 118.305 78.3467C118.734 78.111 119.169 77.9364 119.608 77.823C120.263 77.6541 120.911 77.6016 121.553 77.6653C122.192 77.7193 122.784 77.8947 123.33 78.1917C123.876 78.4887 124.354 78.9073 124.764 79.4476C125.181 79.9756 125.491 80.6304 125.693 81.4121C125.874 82.1157 125.912 82.8668 125.805 83.6655C125.706 84.4519 125.456 85.2406 125.055 86.0317C124.652 86.813 124.099 87.5759 123.395 88.3203C122.698 89.0525 121.846 89.7099 120.839 90.2925C121.054 90.8832 121.28 91.4139 121.516 91.8845C121.762 92.3526 122.013 92.7411 122.27 93.05C122.536 93.3564 122.807 93.5783 123.083 93.7158C123.367 93.8507 123.661 93.8791 123.964 93.801C124.157 93.7408 124.334 93.6587 124.495 93.5547C124.639 93.4655 124.775 93.347 124.903 93.1992C125.042 93.0489 125.138 92.8573 125.193 92.6243C124.908 92.5726 124.674 92.4716 124.489 92.3212C124.305 92.1708 124.157 92.0214 124.045 91.873C123.917 91.6977 123.82 91.5038 123.755 91.2914C123.634 90.8224 123.628 90.4173 123.738 90.0763C123.848 89.7353 124.009 89.4489 124.22 89.2173C124.431 88.9857 124.661 88.8065 124.91 88.6798C125.156 88.5434 125.357 88.455 125.514 88.4146C125.68 88.3718 125.889 88.3543 126.141 88.3622C126.403 88.3676 126.672 88.439 126.947 88.5765C127.222 88.7139 127.484 88.9433 127.734 89.2645C127.991 89.5734 128.193 90.0161 128.342 90.5926ZM122.344 82.3073C122.253 81.9555 122.133 81.6321 121.984 81.337C121.842 81.0297 121.678 80.7752 121.49 80.5734C121.312 80.3692 121.113 80.2226 120.892 80.1337C120.678 80.0325 120.454 80.0121 120.22 80.0726C119.819 80.176 119.54 80.4461 119.381 80.8829C119.221 81.31 119.14 81.8466 119.14 82.4927C119.14 83.1389 119.213 83.8652 119.358 84.6718C119.504 85.4784 119.688 86.3117 119.909 87.1716L120.185 88.2415C120.616 87.8491 120.994 87.418 121.321 86.9481C121.658 86.4756 121.922 85.9854 122.114 85.4773C122.313 84.9569 122.433 84.431 122.473 83.8996C122.523 83.3657 122.48 82.8349 122.344 82.3073ZM137.826 92.1481C137.689 91.8604 137.556 91.5664 137.426 91.2663C137.297 90.9663 137.175 90.6539 137.06 90.3292C136.781 91.1096 136.375 91.7564 135.84 92.2694C135.308 92.7923 134.671 93.1495 133.928 93.3411C133.547 93.4394 133.14 93.4767 132.707 93.453C132.276 93.4391 131.855 93.3235 131.445 93.1063C131.044 92.8866 130.67 92.5455 130.321 92.0831C129.98 91.6083 129.706 90.9704 129.499 90.1691C129.328 89.5047 129.277 88.903 129.346 88.364C129.413 87.8152 129.555 87.3149 129.772 86.8629C129.989 86.4109 130.257 85.9977 130.578 85.6233C130.898 85.2489 131.221 84.9051 131.546 84.5918C131.882 84.276 132.201 83.9799 132.505 83.7035C132.809 83.4271 133.05 83.1671 133.226 82.9235C133.568 82.4706 133.846 82.0133 134.061 81.5515C134.282 81.0775 134.437 80.6052 134.524 80.1346C134.311 79.4705 134.095 78.9373 133.877 78.5351C133.665 78.1206 133.444 77.8078 133.212 77.5966C132.978 77.3756 132.726 77.2477 132.457 77.213C132.195 77.166 131.912 77.1816 131.609 77.2598C131.16 77.3757 130.804 77.5717 130.542 77.8478C130.289 78.1214 130.1 78.4201 129.976 78.7441C130.26 78.8375 130.489 78.9557 130.661 79.0988C130.843 79.2394 130.99 79.3839 131.101 79.5324C131.227 79.6979 131.32 79.8771 131.381 80.07C131.552 80.7345 131.492 81.2917 131.202 81.7418C130.922 82.1893 130.488 82.4887 129.902 82.6399C129.599 82.7181 129.303 82.7215 129.013 82.6503C128.722 82.5692 128.445 82.4269 128.184 82.2232C127.933 82.0171 127.708 81.752 127.51 81.4279C127.312 81.1039 127.16 80.7367 127.054 80.3263C126.948 79.9159 126.929 79.4571 126.996 78.95C127.063 78.4428 127.252 77.9409 127.561 77.4442C127.868 76.9377 128.311 76.4743 128.891 76.0539C129.468 75.6237 130.215 75.2901 131.134 75.0532C132.052 74.8163 132.885 74.7941 133.633 74.9868C134.379 75.1697 135.038 75.505 135.612 75.9926C136.184 76.4705 136.662 77.0715 137.047 77.7955C137.441 78.517 137.744 79.2882 137.956 80.109C138.115 80.7246 138.283 81.3952 138.459 82.1208C138.636 82.8464 138.823 83.5902 139.019 84.3524C139.183 84.9875 139.352 85.6214 139.526 86.254C139.699 86.8866 139.878 87.4972 140.061 88.0857C140.241 88.6644 140.424 89.2113 140.609 89.7263C140.791 90.2316 140.975 90.6794 141.159 91.0696L137.826 92.1481ZM135.39 83.6159C135.154 84.1145 134.879 84.5608 134.563 84.9547C134.323 85.2356 134.065 85.5471 133.788 85.8894C133.522 86.2291 133.278 86.5785 133.058 86.9375C132.848 87.2939 132.685 87.6537 132.571 88.0168C132.463 88.3676 132.451 88.7042 132.534 89.0267C132.648 89.4664 132.852 89.8149 133.148 90.0721C133.443 90.3293 133.787 90.4075 134.177 90.3067C134.539 90.2135 134.836 90.0326 135.069 89.764C135.302 89.4955 135.49 89.1918 135.631 88.853C135.781 88.5019 135.886 88.1413 135.946 87.7713C136.017 87.3988 136.061 87.0643 136.078 86.7681L135.39 83.6159ZM148.514 65.2862C149.025 68.1974 149.585 71.0752 150.194 73.9195C150.8 76.7541 151.471 79.5981 152.207 82.4513C152.699 84.3567 153.221 86.2594 153.773 88.1595L150.447 89.0801L149.801 86.1516C149.599 86.9852 149.343 87.6504 149.034 88.1471C148.724 88.6438 148.424 89.034 148.132 89.3177C147.789 89.6458 147.428 89.8797 147.047 90.0197C146.549 90.1482 146.009 90.1363 145.428 89.984C144.846 89.8317 144.261 89.4616 143.672 88.8737C143.082 88.2858 142.507 87.4494 141.946 86.3644C141.382 85.2697 140.875 83.8478 140.423 82.0988C140.126 80.9457 139.932 79.9119 139.842 78.9972C139.75 78.0727 139.736 77.2529 139.802 76.5377C139.867 75.8225 140 75.2048 140.199 74.6844C140.406 74.1518 140.654 73.702 140.945 73.3351C141.246 72.9658 141.582 72.6708 141.952 72.4502C142.322 72.2296 142.703 72.0689 143.094 71.9681C143.363 71.9195 143.662 71.91 143.993 71.9393C144.272 71.9715 144.598 72.0437 144.971 72.1559C145.351 72.2559 145.76 72.4474 146.198 72.7305C145.58 70.5764 144.935 68.4396 144.263 66.3202L148.514 65.2862ZM148.597 81.241C148.11 79.3552 147.593 77.472 147.046 75.5915C146.898 75.4629 146.739 75.3319 146.569 75.1985C146.409 75.0627 146.238 74.9452 146.056 74.8462C145.872 74.7375 145.685 74.6606 145.496 74.6155C145.307 74.5704 145.12 74.5718 144.935 74.6197C144.661 74.6902 144.408 74.8598 144.175 75.1283C143.949 75.3845 143.784 75.7761 143.681 76.3031C143.574 76.8204 143.547 77.4838 143.6 78.2936C143.662 79.1008 143.845 80.0907 144.147 81.2632C144.427 82.3479 144.708 83.2342 144.989 83.9223C145.271 84.6104 145.55 85.148 145.828 85.5351C146.102 85.9124 146.369 86.1613 146.63 86.2817C146.888 86.3924 147.139 86.4162 147.383 86.3532C147.754 86.2574 148.04 86.0534 148.241 85.741C148.449 85.4164 148.596 85.0555 148.681 84.6584C148.776 84.2587 148.834 83.8581 148.855 83.4565C148.874 83.0452 148.889 82.6976 148.899 82.4136L148.597 81.241ZM163.037 68.1367C163.127 68.7284 163.23 69.3273 163.344 69.9334C163.456 70.5297 163.568 71.1261 163.681 71.7225C163.803 72.3163 163.921 72.8955 164.035 73.46C164.147 74.0148 164.257 74.5438 164.366 75.0472C164.617 76.2226 164.868 77.3564 165.119 78.4486C165.357 79.6167 165.618 80.7688 165.901 81.9047C166.191 83.0284 166.432 84.1072 166.626 85.1411C166.822 86.1847 166.935 87.1665 166.964 88.0866C167.005 89.0139 166.893 89.8506 166.626 90.5966C166.363 91.3524 165.911 92.0056 165.272 92.5562C164.642 93.1043 163.755 93.5257 162.612 93.8206C161.752 94.0424 161.031 94.0931 160.447 93.9727C159.876 93.8594 159.407 93.6573 159.04 93.3664C158.676 93.0852 158.398 92.7556 158.207 92.3777C158.025 91.9972 157.894 91.6507 157.814 91.338C157.728 91.0058 157.696 90.6805 157.718 90.3621C157.753 90.051 157.835 89.7641 157.965 89.5012C158.095 89.2383 158.276 89.0094 158.507 88.8143C158.748 88.6167 159.039 88.4738 159.381 88.3856C159.743 88.2923 160.083 88.2775 160.401 88.3412C160.72 88.4049 161 88.5203 161.241 88.6874C161.495 88.8617 161.705 89.0731 161.874 89.3215C162.042 89.5699 162.161 89.8309 162.232 90.1045C162.263 90.2633 162.27 90.4334 162.254 90.6146C162.241 90.764 162.192 90.9381 162.107 91.137C162.036 91.3431 161.914 91.557 161.741 91.7786C161.871 91.7972 161.986 91.7988 162.087 91.7833C162.199 91.7751 162.304 91.7584 162.402 91.7332C162.656 91.6677 162.9 91.5215 163.133 91.2946C163.379 91.0749 163.577 90.7736 163.728 90.3907C163.88 90.0077 163.97 89.5518 164.001 89.0229C164.031 88.494 163.969 87.8899 163.815 87.2107C163.626 86.4778 163.44 85.7596 163.259 85.0561C163.087 84.35 162.901 83.5694 162.702 82.7143C162.533 83.4351 162.304 84.0206 162.014 84.4706C161.721 84.9109 161.425 85.2583 161.126 85.5126C160.785 85.8088 160.42 86.0282 160.029 86.1706C159.306 86.3571 158.629 86.3389 157.999 86.116C157.368 85.8931 156.791 85.4948 156.268 84.9211C155.745 84.3474 155.275 83.6191 154.86 82.7362C154.452 81.841 154.099 80.8169 153.802 79.6639C152.978 76.4686 152.411 73.3633 152.102 70.3478L155.931 69.7979C155.936 70.1405 155.948 70.5124 155.969 70.9137C155.998 71.3124 156.037 71.7245 156.084 72.15C156.131 72.5755 156.185 73.0047 156.244 73.4374C156.311 73.8579 156.374 74.2637 156.433 74.6549C156.577 75.5766 156.74 76.5091 156.921 77.4525C157.16 78.3807 157.398 79.1842 157.636 79.8628C157.871 80.5317 158.121 81.0769 158.386 81.4983C158.659 81.9075 158.956 82.1904 159.277 82.3471C159.599 82.5037 159.965 82.5292 160.376 82.4233C160.656 82.2988 160.887 82.0205 161.067 81.5884C161.144 81.4018 161.216 81.1749 161.282 80.9076C161.349 80.6403 161.401 80.3193 161.44 79.9446C161.479 79.5698 161.498 79.1377 161.497 78.6482C161.493 78.1489 161.46 77.5789 161.399 76.9381C161.232 76.1683 161.073 75.4695 160.921 74.8417C160.777 74.2015 160.63 73.5931 160.482 73.0166C160.303 72.3229 160.117 71.6622 159.923 71.0346C159.728 70.3973 159.51 69.7344 159.27 69.046L163.037 68.1367Z" fill="black"/>
</svg>
