<svg width="31" height="19" viewBox="0 0 31 19" fill="none" xmlns="http://www.w3.org/2000/svg">
<path d="M29.7698 0.000488281V18.6065" stroke="#99D2FB" stroke-opacity="0.4" stroke-width="0.930303"/>
<mask id="mask0_13_509" style="mask-type:luminance" maskUnits="userSpaceOnUse" x="0" y="0" width="19" height="19">
<path d="M18.6061 0.000488281H0V18.6065H18.6061V0.000488281Z" fill="white"/>
</mask>
<g mask="url(#mask0_13_509)">
<path fill-rule="evenodd" clip-rule="evenodd" d="M7.44242 3.72168C7.60415 3.7217 7.76146 3.77441 7.89057 3.87181C8.01967 3.96921 8.11352 4.10602 8.15794 4.26152L8.96476 7.08577C9.13848 7.694 9.46434 8.24792 9.91163 8.69521C10.359 9.14248 11.5212 9.64205 11.5212 9.64205L14.3456 10.4489C14.5009 10.4934 14.6377 10.5872 14.735 10.7164C14.8322 10.8455 14.8848 11.0027 14.8848 11.1644C14.8848 11.326 14.8322 11.4833 14.735 11.6123C14.6377 11.7415 14.5009 11.8353 14.3456 11.8799L11.5212 12.6867C10.9129 12.8603 10.359 13.1862 9.91163 13.6336C9.46434 14.0808 9.13848 14.6347 8.96476 15.243L8.15794 18.0672C8.11342 18.2226 8.01952 18.3593 7.89043 18.4566C7.76133 18.5538 7.60408 18.6065 7.44242 18.6065C7.28077 18.6065 7.12351 18.5538 6.99442 18.4566C6.86533 18.3593 6.77142 18.2226 6.7269 18.0672L5.92009 15.243C5.74638 14.6347 5.42048 14.0808 4.97318 13.6336C4.52587 13.1862 3.97194 12.8603 3.36369 12.6867L0.539325 11.8799C0.383921 11.8353 0.247236 11.7415 0.149933 11.6123C0.05263 11.4833 0 11.326 0 11.1644C0 11.0027 0.05263 10.8455 0.149933 10.7164C0.247236 10.5872 0.383921 10.4934 0.539325 10.4489L3.36369 9.64205C3.97194 9.46837 4.52587 9.14248 4.97318 8.69521C5.42048 8.24792 5.74638 7.694 5.92009 7.08577L6.7269 4.26152C6.77133 4.10602 6.86519 3.96921 6.99429 3.87181C7.12339 3.77441 7.2807 3.7217 7.44242 3.72168Z" fill="#99D2FB"/>
<path fill-rule="evenodd" clip-rule="evenodd" d="M14.8854 0.000488281C14.9664 0.000504954 15.045 0.0268605 15.1094 0.0755669C15.1741 0.124273 15.221 0.19268 15.2431 0.270437L15.6468 1.68271C15.7335 1.98686 15.8965 2.26384 16.1201 2.4875C16.3438 2.71117 16.9251 2.961 16.9251 2.961L18.3373 3.36443C18.4151 3.3867 18.4833 3.43364 18.532 3.49819C18.5807 3.56274 18.607 3.64137 18.607 3.72221C18.607 3.80305 18.5807 3.88168 18.532 3.94622C18.4833 4.01078 18.4151 4.05774 18.3373 4.07999L16.9251 4.48343C16.6209 4.57029 16.3438 4.73324 16.1201 4.95691C15.8965 5.18058 15.7335 5.45757 15.6468 5.76172L15.2431 7.17398C15.221 7.25169 15.1741 7.32004 15.1094 7.36869C15.0449 7.41735 14.9664 7.44366 14.8854 7.44366C14.8046 7.44366 14.726 7.41735 14.6615 7.36869C14.5968 7.32004 14.5499 7.25169 14.5277 7.17398L14.1242 5.76172C14.0373 5.45757 13.8743 5.18058 13.6508 4.95691C13.427 4.73324 13.15 4.57029 12.8459 4.48343L11.4335 4.07999C11.3559 4.05774 11.2875 4.01078 11.2388 3.94622C11.1901 3.88168 11.1638 3.80305 11.1638 3.72221C11.1638 3.64137 11.1901 3.56274 11.2388 3.49819C11.2875 3.43364 11.3559 3.3867 11.4335 3.36443L12.8459 2.961C13.15 2.87412 13.427 2.71117 13.6508 2.4875C13.8743 2.26384 14.0373 1.98686 14.1242 1.68271L14.5277 0.270437C14.5499 0.19268 14.5968 0.124273 14.6613 0.0755669C14.7258 0.0268605 14.8046 0.000504954 14.8854 0.000488281Z" fill="#99D2FB"/>
</g>
</svg>
