<svg width="606" height="656" viewBox="0 0 606 656" fill="none" xmlns="http://www.w3.org/2000/svg">
<rect y="216" width="606" height="389" rx="194.5" fill="url(#paint0_radial_839_23)"/>
<path fill-rule="evenodd" clip-rule="evenodd" d="M528.559 470.291L468.542 470.291L468.542 394.298L468.542 393.866L468.11 393.866L464.656 393.866L464.224 393.866L464.224 394.298L464.224 526.422L434.432 526.422L434 526.422L434 526.853L434 530.308L434 530.739L434.432 530.739L464.224 530.739L464.224 603.71L464.224 604.142L464.656 604.142L468.11 604.142L468.542 604.142L468.542 603.71L468.542 474.608L528.559 474.608L528.991 474.608L528.991 474.177L528.991 470.723L528.991 470.291L528.559 470.291Z" fill="url(#paint1_linear_839_23)"/>
<path fill-rule="evenodd" clip-rule="evenodd" d="M369.658 530.627L369.658 564.925L369.658 565.359L370.093 565.359L373.566 565.359L374 565.359L374 564.925L374 530.627L374 530.192L374 526.719L374 526.285L373.566 526.285L313.219 526.285L313.219 393.434L313.219 393L312.784 393L309.311 393L308.877 393L308.877 393.434L308.877 526.285L244.188 526.285L243.754 526.285L243.754 526.719L243.754 530.192L243.754 530.627L244.188 530.627L369.658 530.627Z" fill="white"/>
<path d="M120.835 655.449L120.835 394.346L116 394.346L116 655.449L120.835 655.449Z" fill="url(#paint2_linear_839_23)"/>
<rect x="45" y="15" width="528" height="392" rx="196" fill="url(#paint3_radial_839_23)"/>
<path fill-rule="evenodd" clip-rule="evenodd" d="M448.704 90.7377H498.496H498.999V91.2418V95.2746V95.7787H498.496H448.704V245.496V246H448.201H444.178H443.675V245.496V95.7787H419.03H418.527H414.504H414.001V95.2746V55.9549V55.4508H414.504H418.527H419.03V55.9549V90.7377H443.675V0.504098V0L444.178 0L448.201 0L448.704 0V0.504098V90.7377Z" fill="url(#paint4_linear_839_23)"/>
<path fill-rule="evenodd" clip-rule="evenodd" d="M305.5 99.7787H337.499H337.999V99.2746V95.2418V94.7377H337.499H305.5V4.5041V4H305H301H300.5V4.5041V94.7377H281.501H281.001V95.2418V99.2746V99.7787H281.501H300.5V249.496V250H301H305H305.5V249.496V99.7787Z" fill="url(#paint5_linear_839_23)"/>
<path fill-rule="evenodd" clip-rule="evenodd" d="M150.943 63.9549V98.7377H116.057V8.5041V8H115.551H111.506H111.001V8.5041V253.496V254H111.506H115.551H116.057V253.496V103.779H150.943H151.449H155.494H155.999V103.275V63.9549V63.4508H155.494H151.449H150.943V63.9549Z" fill="url(#paint6_linear_839_23)"/>
<defs>
<radialGradient id="paint0_radial_839_23" cx="0" cy="0" r="1" gradientUnits="userSpaceOnUse" gradientTransform="translate(303 410.5) scale(303 194.5)">
<stop stop-color="#99D2FB" stop-opacity="0.6"/>
<stop offset="1" stop-color="#99D2FB" stop-opacity="0"/>
</radialGradient>
<linearGradient id="paint1_linear_839_23" x1="466.815" y1="390.196" x2="469.406" y2="634.366" gradientUnits="userSpaceOnUse">
<stop stop-color="white"/>
<stop offset="1" stop-color="white" stop-opacity="0"/>
</linearGradient>
<linearGradient id="paint2_linear_839_23" x1="117.67" y1="389.788" x2="191.225" y2="673.975" gradientUnits="userSpaceOnUse">
<stop stop-color="white"/>
<stop offset="1" stop-color="white" stop-opacity="0"/>
</linearGradient>
<radialGradient id="paint3_radial_839_23" cx="0" cy="0" r="1" gradientUnits="userSpaceOnUse" gradientTransform="translate(309 211) scale(264 196)">
<stop stop-color="#FF5924" stop-opacity="0.2"/>
<stop offset="1" stop-color="#FF5924" stop-opacity="0"/>
</radialGradient>
<linearGradient id="paint4_linear_839_23" x1="446.441" y1="-72.0861" x2="448.26" y2="245.989" gradientUnits="userSpaceOnUse">
<stop stop-color="white" stop-opacity="0"/>
<stop offset="1" stop-color="white"/>
</linearGradient>
<linearGradient id="paint5_linear_839_23" x1="302.755" y1="-68.0861" x2="305.467" y2="249.977" gradientUnits="userSpaceOnUse">
<stop stop-color="white" stop-opacity="0"/>
<stop offset="1" stop-color="white"/>
</linearGradient>
<linearGradient id="paint6_linear_839_23" x1="128.175" y1="-64.0861" x2="131.61" y2="253.963" gradientUnits="userSpaceOnUse">
<stop stop-color="white" stop-opacity="0"/>
<stop offset="1" stop-color="white"/>
</linearGradient>
</defs>
</svg>
