<svg preserveAspectRatio="none" width="100%" height="100%" overflow="visible" style="display: block;" viewBox="0 0 33.6979 23.5884" fill="none" xmlns="http://www.w3.org/2000/svg">
<g id="icons">
<path id="youtube-[#168]" fill-rule="evenodd" clip-rule="evenodd" d="M13.4596 16.1515V6.69628C16.8162 8.27574 19.4159 9.80153 22.4906 11.4465C19.9547 12.8529 16.8162 14.4309 13.4596 16.1515ZM32.1661 1.99374C31.5871 1.23089 30.6003 0.637081 29.5496 0.440489C26.4615 -0.145935 7.19611 -0.147603 4.10969 0.440489C3.26717 0.59843 2.51694 0.980196 1.87247 1.57334C-0.843053 4.09376 0.00786199 17.61 0.662407 19.7994C0.93765 20.7471 1.29347 21.4305 1.74158 21.8792C2.31892 22.4723 3.1094 22.8807 4.01737 23.0638C6.56002 23.5898 19.6593 23.8838 29.4959 23.1428C30.4022 22.9849 31.2044 22.5633 31.8372 21.945C34.3479 19.4346 34.1768 5.15938 32.1661 1.99374Z" fill="var(--fill-0, black)"/>
</g>
</svg>
