<svg preserveAspectRatio="none" width="100%" height="100%" overflow="visible" style="display: block;" viewBox="0 0 33.6977 33.6977" fill="none" xmlns="http://www.w3.org/2000/svg">
<g id="linkedin-svgrepo-com 1" clip-path="url(#clip0_0_6)">
<path id="Vector" d="M30.6494 0H3.04823C1.36476 0 0 1.36476 0 3.04823V30.6494C0 32.3329 1.36476 33.6977 3.04823 33.6977H30.6494C32.3329 33.6977 33.6977 32.3329 33.6977 30.6494V3.04823C33.6977 1.36476 32.3329 0 30.6494 0ZM10.4275 29.0968C10.4275 29.5867 10.0304 29.9839 9.54041 29.9839H5.76433C5.27439 29.9839 4.87725 29.5867 4.87725 29.0968V13.2676C4.87725 12.7777 5.27439 12.3805 5.76433 12.3805H9.54041C10.0304 12.3805 10.4275 12.7777 10.4275 13.2676V29.0968ZM7.65237 10.8884C5.67118 10.8884 4.06507 9.2823 4.06507 7.3011C4.06507 5.31991 5.67118 3.7138 7.65237 3.7138C9.63357 3.7138 11.2397 5.31991 11.2397 7.3011C11.2397 9.2823 9.63365 10.8884 7.65237 10.8884ZM30.1612 29.1682C30.1612 29.6187 29.796 29.9839 29.3456 29.9839H25.2935C24.8431 29.9839 24.4779 29.6187 24.4779 29.1682V21.7435C24.4779 20.6359 24.8028 16.8899 21.5834 16.8899C19.0861 16.8899 18.5796 19.4539 18.4779 20.6045V29.1682C18.4779 29.6187 18.1128 29.9839 17.6623 29.9839H13.7433C13.2929 29.9839 12.9276 29.6187 12.9276 29.1682V13.1962C12.9276 12.7457 13.2929 12.3805 13.7433 12.3805H17.6623C18.1127 12.3805 18.4779 12.7457 18.4779 13.1962V14.5772C19.4039 13.1875 20.78 12.1149 23.71 12.1149C30.1983 12.1149 30.1612 18.1766 30.1612 21.5072V29.1682Z" fill="var(--fill-0, black)"/>
</g>
<defs>
<clipPath id="clip0_0_6">
<rect width="33.6977" height="33.6977" fill="white"/>
</clipPath>
</defs>
</svg>
