<svg preserveAspectRatio="none" width="100%" height="100%" overflow="visible" style="display: block;" viewBox="0 0 36 35" fill="none" xmlns="http://www.w3.org/2000/svg">
<g id="instagram-svgrepo-com 1">
<path id="Vector" fill-rule="evenodd" clip-rule="evenodd" d="M18 26.25C22.9705 26.25 27 22.3325 27 17.5C27 12.6675 22.9705 8.75 18 8.75C13.0294 8.75 9 12.6675 9 17.5C9 22.3325 13.0294 26.25 18 26.25ZM18 23.3333C21.3137 23.3333 24 20.7216 24 17.5C24 14.2783 21.3137 11.6667 18 11.6667C14.6863 11.6667 12 14.2783 12 17.5C12 20.7216 14.6863 23.3333 18 23.3333Z" fill="var(--fill-0, #0F0F0F)"/>
<path id="Vector_2" d="M27 7.29167C26.1716 7.29167 25.5 7.94459 25.5 8.75C25.5 9.55541 26.1716 10.2083 27 10.2083C27.8285 10.2083 28.5 9.55541 28.5 8.75C28.5 7.94459 27.8285 7.29167 27 7.29167Z" fill="var(--fill-0, #0F0F0F)"/>
<path id="Vector_3" fill-rule="evenodd" clip-rule="evenodd" d="M2.48094 6.23592C1.5 8.10765 1.5 10.5579 1.5 15.4583V19.5417C1.5 24.4421 1.5 26.8924 2.48094 28.764C3.3438 30.4105 4.72062 31.7491 6.41409 32.5879C8.3393 33.5417 10.8595 33.5417 15.9 33.5417H20.1C25.1404 33.5417 27.6607 33.5417 29.5858 32.5879C31.2793 31.7491 32.6562 30.4105 33.519 28.764C34.5 26.8924 34.5 24.4421 34.5 19.5417V15.4583C34.5 10.5579 34.5 8.10765 33.519 6.23592C32.6562 4.58949 31.2793 3.25092 29.5858 2.41203C27.6607 1.45833 25.1404 1.45833 20.1 1.45833H15.9C10.8595 1.45833 8.3393 1.45833 6.41409 2.41203C4.72062 3.25092 3.3438 4.58949 2.48094 6.23592ZM20.1 4.375H15.9C13.3303 4.375 11.5834 4.37728 10.2331 4.48452C8.91786 4.589 8.24526 4.77836 7.77606 5.01079C6.64709 5.57006 5.72921 6.46244 5.15396 7.56006C4.91489 8.01623 4.72011 8.67014 4.61265 9.94887C4.50234 11.2616 4.5 12.96 4.5 15.4583V19.5417C4.5 22.0401 4.50234 23.7383 4.61265 25.0511C4.72011 26.3299 4.91489 26.9838 5.15396 27.44C5.72921 28.5375 6.64709 29.4299 7.77606 29.9892C8.24526 30.2216 8.91786 30.4111 10.2331 30.5155C11.5834 30.6227 13.3303 30.625 15.9 30.625H20.1C22.6698 30.625 24.4165 30.6227 25.7668 30.5155C27.0822 30.4111 27.7548 30.2216 28.224 29.9892C29.3529 29.4299 30.2707 28.5375 30.846 27.44C31.0851 26.9838 31.2799 26.3299 31.3873 25.0511C31.4976 23.7383 31.5 22.0401 31.5 19.5417V15.4583C31.5 12.96 31.4976 11.2616 31.3873 9.94887C31.2799 8.67014 31.0851 8.01623 30.846 7.56006C30.2707 6.46244 29.3529 5.57006 28.224 5.01079C27.7548 4.77836 27.0822 4.589 25.7668 4.48452C24.4165 4.37728 22.6698 4.375 20.1 4.375Z" fill="var(--fill-0, #0F0F0F)"/>
</g>
</svg>
